<?xml version="1.0" standalone="no"?><!DOCTYPE svg PUBLIC "-//W3C//DTD SVG 1.1//EN" "http://www.w3.org/Graphics/SVG/1.1/DTD/svg11.dtd"><svg t="1694237398738" class="icon" viewBox="0 0 1024 1024" version="1.1" xmlns="http://www.w3.org/2000/svg" p-id="4793" xmlns:xlink="http://www.w3.org/1999/xlink" width="200" height="200"><path d="M345.319131 8.455314c-21.343086 0-38.650149 16.780434-38.650148 37.62176 0 8.004754 2.65216 15.477029 7.005623 21.582995l-95.056457 107.677988c-4.139886-1.164434-8.522606-2.004114-13.04576-2.004114-25.955474 0-46.984046 20.651154-46.984046 45.995154 0 1.332663 0.127269 2.589257 0.241371 3.8912L75.126491 277.003703C68.827429 272.645851 61.210331 270.043429 52.902766 270.043429c-21.343086 0-38.650149 17.01888-38.650149 37.858742 0 13.057463 6.828617 24.479451 17.150537 31.253943L16.185051 620.323109C6.559451 625.277806 0 635.143314 0 646.506789c0 16.335726 13.585554 29.483886 30.316251 29.483885 1.39264 0 2.7648 0.058514 4.107703-0.117028l210.041417 210.168685a28.663223 28.663223 0 0 0-0.119954 2.358126c0 16.335726 13.585554 29.602377 30.316252 29.602377 6.13376 0 11.776-1.775909 16.546377-4.836205l114.019474 59.67872c-0.213577 1.609143-0.361326 3.168549-0.361326 4.834742 0 20.841326 21.05344 37.454994 38.650149 37.858743 17.598171 0.403749 36.625554-15.096686 38.408777-34.320091l308.721371-88.100572c7.050971 9.151634 18.168686 15.096686 30.800458 15.096686 21.343086 0 38.650149-16.78336 38.650148-37.624686 0-8.844434-3.115886-17.034971-8.333897-23.468617L985.351314 559.937829c21.343086 0 38.650149-16.900389 38.650149-37.741715 0-18.341303-13.398309-33.631086-31.161783-37.032228l-41.910857-136.573806c6.732069-5.425737 11.111863-13.692343 11.111863-22.880549 0-16.335726-13.587017-29.602377-30.317715-29.602377-2.018743 0-4.009691 0.339383-5.917257 0.70656L733.758903 67.072c0.28672-1.635474 0.602697-3.357257 0.602697-5.071726 0-16.337189-13.585554-29.485349-30.316251-29.485348-9.518811 0-18.120411 4.264229-23.673418 10.968503l-298.696411-9.906469c-5.316023-14.637349-19.543771-25.121646-36.356389-25.121646z m36.115018 51.185372l293.260434 9.669485a29.540937 29.540937 0 0 0 11.83744 16.983772l-6.884206 31.961966c-14.371109 3.18464-26.223177 12.807314-32.250148 25.592685L319.230537 181.116343l21.982354-97.418972c1.366309 0.14336 2.700434 0.118491 4.10624 0.118492 16.464457 0 30.547383-10.01472 36.115018-24.178103z m336.018285 28.894354L904.665966 312.384366c-2.086034 4.01408-3.139291 8.515291-3.139292 13.326628 0 8.518217 3.639589 16.185051 9.540755 21.582995l-15.33952 42.222445L731.706514 184.419474c3.474286-6.402926 5.31456-13.595794 5.31456-21.347474 0-19.723703-12.672731-36.558263-30.559085-43.047497l6.281508-29.602377c1.664731-0.485669 3.180251-1.142491 4.7104-1.887086z m-392.30464 5.896777l-19.928503 88.219063-63.531885 7.31136c-0.16384-0.190171-0.438857-0.400823-0.60416-0.589531z m324.425143 101.19168l-95.056457 362.545737c-2.627291 0.582217-5.251657 1.209783-7.7312 2.122606L301.354423 289.268297l114.3808-12.384548C420.865463 286.1056 430.805577 292.334446 442.309486 292.334446c16.730697 0 30.316251-13.266651 30.316251-29.602377 0-2.309851-0.332069-4.56704-0.845531-6.723292l160.885028-58.379703z m-72.349988 8.256366l-111.120092 40.452388c-5.55008-6.806674-14.191177-11.204023-23.794834-11.204022-16.730697 0-30.316251 13.266651-30.316252 29.60384 0 0.457874 0.099474 0.844069 0.119955 1.296091l-114.3808 12.501577 9.4208-41.866971z m123.681645 5.188754L879.905646 432.800914l-36.839132 101.310172-225.018148 51.068343c-3.232914-5.4272-7.264549-10.286811-12.078812-14.388663zM293.261897 236.194377l-8.092526 35.382126-28.2624-31.253943z m-124.527177 11.558034c2.608274 3.212434 5.67296 6.180571 9.058011 8.610378l-6.642834 33.967542-80.683886 8.844435c-0.076069-0.318903-0.156526-0.629029-0.241371-0.943543z m34.422491 17.337783c0.801646 0.039497 1.604754 0.117029 2.415178 0.117029 1.009371 0 2.02752-0.055589 3.0208-0.117029l17.513325 19.223406-27.296914 2.94912z m33.698378 31.135452l34.304 37.858743-14.736823 65.338514c-16.231863 0.55296-29.109394 13.6192-29.109395 29.602377 0 9.084343 4.153051 17.217829 10.750538 22.645029l-101.337966 151.669028L196.151589 300.709303z m-68.36224 7.548343l-64.257463 327.519085a38.622354 38.622354 0 0 0-25.36448 17.80736l-18.238903-3.42016c-0.301349-11.679451-7.574674-21.525943-17.876114-26.063725L57.614629 345.288411C75.215726 343.157029 89.146514 329.378377 91.191589 312.147383z m113.535268 42.457965l228.88448 252.862172a54.198857 54.198857 0 0 0-0.965486 4.011154L139.865234 641.789074c-2.530743-2.530743-5.522286-4.610926-8.696685-6.36928l118.608457-177.734217c2.470766 0.63488 5.05856 0.943543 7.7312 0.943543 16.730697 0 30.316251-13.266651 30.316251-29.60384 0-12.166583-7.48544-22.583589-18.23744-27.12576z m640.63488 7.783863c0.841143 0.256 1.664731 0.406674 2.536594 0.590994l35.630812 116.288366-55.43936-69.349668z m-33.094217 90.697143l53.264091 66.634606-84.547291 19.224868z m56.284891 106.027886L824.346331 811.856457l2.535132-163.111497c13.287131-2.292297 23.432046-13.493394 23.432046-27.12576 0-11.010926-6.528731-20.545829-16.063635-25.003154l8.213943-22.408046z m-118.608457 26.888777l-6.0416 16.39424c-15.301486 0.394971-27.65824 12.560091-27.65824 27.5968 0 12.419657 8.510903 22.914194 20.04992 26.4192l-2.777965 186.226103a38.597486 38.597486 0 0 0-22.586515 17.217828l-168.73472-35.616183c-0.172617-16.190903-13.572389-29.249829-30.194834-29.249828-16.227474 0-29.533623 12.415269-30.316251 28.070766l-41.188206 9.906468 50.848914-153.674606c28.408686-0.551497 51.853897-20.724297 56.527726-47.294171z m-311.018057 63.80544a57.592686 57.592686 0 0 0 14.73536 17.1008l-58.580114 176.909166-125.735497 30.07488L147.719314 682.830994c0.400823-0.924526 0.760686-1.868069 1.086903-2.830628zM69.329189 673.748114l4.590445 0.826515c0.288183 1.657417 0.705097 3.257783 1.206857 4.834742z m29.954925 30.076343a39.296731 39.296731 0 0 0 12.802926 2.121143c0.889417 0 1.78176-0.058514 2.656549-0.117029l167.767771 154.028618c-2.49856-0.650971-5.14048-1.060571-7.849691-1.060572-5.90848 0-11.404434 1.743726-16.065098 4.599223z m461.995155 123.716754c4.54656 10.730057 15.389257 18.162834 28.022491 18.162835 12.163657 0 22.598217-6.999771 27.416869-17.1008l148.443428 31.135451-286.014903 81.732754 33.819795-102.370742z m-93.606766 22.291018L437.599086 940.412343c-2.562926 0.37888-4.995657 1.043017-7.368412 1.887086l-72.107154-66.282058zM311.983543 887.102903l19.324343 17.690331-26.571337-13.91616c0.054126-0.65536 0.111177-1.338514 0.119954-2.004114l7.12704-1.770057z" p-id="4794"></path></svg>